<?xml version="1.0" encoding="utf-8"?><svg xmlns="http://www.w3.org/2000/svg" xmlns:xlink="http://www.w3.org/1999/xlink" width="1366" height="903" preserveAspectRatio="xMidYMid" viewBox="0 0 1366 903" style="z-index:1;margin-right:-2px;display:block;background-color:rgb(241, 242, 243);animation-play-state:paused" ><g transform="translate(683,451.5) scale(1,1) translate(-683,-451.5)" style="transform:matrix(1, 0, 0, 1, 0, 0);animation-play-state:paused" ><linearGradient id="lg-0.03688077878927887" x1="0" x2="1" y1="0" y2="0" style="animation-play-state:paused" ><stop stop-color="#007fff" offset="0" style="animation-play-state:paused" ></stop>

  
<stop stop-color="#00ffff" offset="1" style="animation-play-state:paused" ></stop></linearGradient>
<path d="M 0 0 L 0 898.442 Q 136.6 737.992 273.2 715.224 T 546.4 641.72 T 819.6 586.296 T 1092.8 458.22 T 1366 335.115 L 1366 0 Z" fill="url(#lg-0.03688077878927887)" opacity="0.4" style="opacity:0.4;animation-play-state:paused" ></path>
<path d="M 0 0 L 0 874.343 Q 136.6 721.814 273.2 689.363 T 546.4 591.314 T 819.6 578.26 T 1092.8 492.628 T 1366 358.86 L 1366 0 Z" fill="url(#lg-0.03688077878927887)" opacity="0.4" style="opacity:0.4;animation-play-state:paused" ></path>
<path d="M 0 0 L 0 831.469 Q 136.6 762.999 273.2 734.084 T 546.4 672.234 T 819.6 522.959 T 1092.8 513.947 T 1366 454.016 L 1366 0 Z" fill="url(#lg-0.03688077878927887)" opacity="0.4" style="opacity:0.4;animation-play-state:paused" ></path>
<path d="M 0 0 L 0 874.376 Q 136.6 830.442 273.2 790.804 T 546.4 586.661 T 819.6 527.893 T 1092.8 394.072 T 1366 383.837 L 1366 0 Z" fill="url(#lg-0.03688077878927887)" opacity="0.4" style="opacity:0.4;animation-play-state:paused" ></path>
<path d="M 0 0 L 0 789.268 Q 136.6 703.824 273.2 681.165 T 546.4 641.049 T 819.6 565.54 T 1092.8 455.998 T 1366 353.352 L 1366 0 Z" fill="url(#lg-0.03688077878927887)" opacity="0.4" style="opacity:0.4;animation-play-state:paused" ></path></g></svg>